<svg width="128" height="128" viewBox="0 0 128 128" fill="none" xmlns="http://www.w3.org/2000/svg">
  <rect width="128" height="128" rx="24" fill="#30AABC" />
  <path d="M41.6 54.4H86.4M41.6 73.6H73.6M41.6 92.8H60.8M64 25.6V38.4M83.2 38.41L74.25 47.36M44.8 47.36L35.85 38.41M89.6 64H102.4M25.6 64H38.4" stroke="white" stroke-width="8" stroke-linecap="round" stroke-linejoin="round" />
  <path d="M64 83.2C74.4934 83.2 83.2 74.4934 83.2 64C83.2 53.5066 74.4934 44.8 64 44.8C53.5066 44.8 44.8 53.5066 44.8 64C44.8 66.5649 45.3036 69.0153 46.2353 71.2608C46.9848 73.0309 47.3596 73.916 47.4605 74.2878C47.5614 74.6597 47.5816 74.888 47.5425 75.3147C47.5033 75.7413 47.4054 76.1561 47.2095 76.9858L45.2406 85.8547C44.9218 87.1941 44.7624 87.8638 45.023 88.2963C45.2516 88.6759 45.6561 88.9214 46.0992 88.9581C46.6059 89 47.2756 88.8406 48.615 88.5218L57.484 86.5528C58.3137 86.3569 58.7285 86.259 59.1551 86.2199C59.5818 86.1808 59.8101 86.201 60.1819 86.3019C60.5538 86.4028 61.4389 86.7775 63.209 87.5271C65.4545 88.4587 67.9049 88.9624 70.4698 88.9624C80.9632 88.9624 89.6698 80.2558 89.6698 69.7624C89.6698 59.269 80.9632 50.5624 70.4698 50.5624" stroke="white" stroke-width="8" stroke-linecap="round" stroke-linejoin="round" />
</svg>
